<mxfile host="app.diagrams.net" modified="2023-07-22T10:13:13.239Z" agent="Mozilla/5.0 (Windows NT 10.0; Win64; x64) AppleWebKit/537.36 (KHTML, like Gecko) Chrome/115.0.0.0 Safari/537.36" etag="rJPvYxsJafoo_4mLztKR" version="21.6.5" type="google">
  <diagram name="Page-1" id="HtugrC_J_wY-7xMimbPm">
    <mxGraphModel grid="1" page="1" gridSize="10" guides="1" tooltips="1" connect="1" arrows="1" fold="1" pageScale="1" pageWidth="1100" pageHeight="850" math="0" shadow="0">
      <root>
        <mxCell id="0" />
        <mxCell id="1" parent="0" />
        <mxCell id="5Kz1C0BnfGolWp81w5-C-6" value="" style="ellipse;html=1;shape=startState;fillColor=#000000;strokeColor=#ff0000;" vertex="1" parent="1">
          <mxGeometry x="80" y="170" width="30" height="30" as="geometry" />
        </mxCell>
        <mxCell id="5Kz1C0BnfGolWp81w5-C-7" value="" style="edgeStyle=orthogonalEdgeStyle;html=1;verticalAlign=bottom;endArrow=open;endSize=8;strokeColor=#ff0000;rounded=0;entryX=0;entryY=0.5;entryDx=0;entryDy=0;" edge="1" parent="1" source="5Kz1C0BnfGolWp81w5-C-6">
          <mxGeometry relative="1" as="geometry">
            <mxPoint x="160" y="185" as="targetPoint" />
          </mxGeometry>
        </mxCell>
        <mxCell id="5Kz1C0BnfGolWp81w5-C-12" value="Current account" style="rounded=1;whiteSpace=wrap;html=1;arcSize=40;fontColor=#000000;fillColor=#ffffc0;strokeColor=#ff0000;" vertex="1" parent="1">
          <mxGeometry x="140" y="165" width="120" height="40" as="geometry" />
        </mxCell>
        <mxCell id="5Kz1C0BnfGolWp81w5-C-13" value="" style="edgeStyle=orthogonalEdgeStyle;html=1;verticalAlign=bottom;endArrow=open;endSize=8;strokeColor=#ff0000;rounded=0;exitX=1;exitY=0.5;exitDx=0;exitDy=0;" edge="1" parent="1" source="5Kz1C0BnfGolWp81w5-C-12">
          <mxGeometry relative="1" as="geometry">
            <mxPoint x="340" y="185" as="targetPoint" />
          </mxGeometry>
        </mxCell>
        <mxCell id="5Kz1C0BnfGolWp81w5-C-14" value="Validate account" style="rounded=1;whiteSpace=wrap;html=1;arcSize=40;fontColor=#000000;fillColor=#ffffc0;strokeColor=#ff0000;" vertex="1" parent="1">
          <mxGeometry x="340" y="165" width="120" height="40" as="geometry" />
        </mxCell>
        <mxCell id="5Kz1C0BnfGolWp81w5-C-15" value="" style="edgeStyle=orthogonalEdgeStyle;html=1;verticalAlign=bottom;endArrow=open;endSize=8;strokeColor=#ff0000;rounded=0;exitX=1;exitY=0.5;exitDx=0;exitDy=0;entryX=0;entryY=0.5;entryDx=0;entryDy=0;" edge="1" parent="1" source="5Kz1C0BnfGolWp81w5-C-14" target="5Kz1C0BnfGolWp81w5-C-16">
          <mxGeometry relative="1" as="geometry">
            <mxPoint x="520" y="185" as="targetPoint" />
          </mxGeometry>
        </mxCell>
        <mxCell id="5Kz1C0BnfGolWp81w5-C-16" value="Is valid?" style="rhombus;whiteSpace=wrap;html=1;fontColor=#000000;fillColor=#ffffc0;strokeColor=#ff0000;" vertex="1" parent="1">
          <mxGeometry x="530" y="162.5" width="80" height="45" as="geometry" />
        </mxCell>
        <mxCell id="5Kz1C0BnfGolWp81w5-C-17" value="no" style="edgeStyle=orthogonalEdgeStyle;html=1;align=left;verticalAlign=bottom;endArrow=open;endSize=8;strokeColor=#ff0000;rounded=0;entryX=0;entryY=0.5;entryDx=0;entryDy=0;" edge="1" parent="1" source="5Kz1C0BnfGolWp81w5-C-16" target="5Kz1C0BnfGolWp81w5-C-19">
          <mxGeometry x="-1" relative="1" as="geometry">
            <mxPoint x="650" y="185" as="targetPoint" />
          </mxGeometry>
        </mxCell>
        <mxCell id="5Kz1C0BnfGolWp81w5-C-18" value="yes" style="edgeStyle=orthogonalEdgeStyle;html=1;align=left;verticalAlign=top;endArrow=open;endSize=8;strokeColor=#ff0000;rounded=0;exitX=0.5;exitY=1;exitDx=0;exitDy=0;" edge="1" parent="1" source="5Kz1C0BnfGolWp81w5-C-16">
          <mxGeometry x="-1" y="-10" relative="1" as="geometry">
            <mxPoint x="569.64" y="250" as="targetPoint" />
            <mxPoint x="569.64" y="220" as="sourcePoint" />
            <mxPoint x="10" y="-10" as="offset" />
          </mxGeometry>
        </mxCell>
        <mxCell id="5Kz1C0BnfGolWp81w5-C-19" value="Reject details" style="rounded=1;whiteSpace=wrap;html=1;arcSize=40;fontColor=#000000;fillColor=#ffffc0;strokeColor=#ff0000;" vertex="1" parent="1">
          <mxGeometry x="650" y="165" width="120" height="40" as="geometry" />
        </mxCell>
        <mxCell id="5Kz1C0BnfGolWp81w5-C-20" value="" style="edgeStyle=orthogonalEdgeStyle;html=1;verticalAlign=bottom;endArrow=open;endSize=8;strokeColor=#ff0000;rounded=0;exitX=1;exitY=0.5;exitDx=0;exitDy=0;" edge="1" parent="1" source="5Kz1C0BnfGolWp81w5-C-19">
          <mxGeometry relative="1" as="geometry">
            <mxPoint x="835" y="185" as="targetPoint" />
          </mxGeometry>
        </mxCell>
        <mxCell id="5Kz1C0BnfGolWp81w5-C-22" value="Create account details" style="rounded=1;whiteSpace=wrap;html=1;arcSize=40;fontColor=#000000;fillColor=#ffffc0;strokeColor=#ff0000;" vertex="1" parent="1">
          <mxGeometry x="510" y="250" width="120" height="40" as="geometry" />
        </mxCell>
        <mxCell id="5Kz1C0BnfGolWp81w5-C-23" value="" style="edgeStyle=orthogonalEdgeStyle;html=1;verticalAlign=bottom;endArrow=open;endSize=8;strokeColor=#ff0000;rounded=0;exitX=1;exitY=0.5;exitDx=0;exitDy=0;" edge="1" parent="1" source="5Kz1C0BnfGolWp81w5-C-22">
          <mxGeometry relative="1" as="geometry">
            <mxPoint x="680" y="270" as="targetPoint" />
          </mxGeometry>
        </mxCell>
        <mxCell id="5Kz1C0BnfGolWp81w5-C-24" value="confirm user" style="rounded=1;whiteSpace=wrap;html=1;arcSize=40;fontColor=#000000;fillColor=#ffffc0;strokeColor=#ff0000;" vertex="1" parent="1">
          <mxGeometry x="680" y="250" width="120" height="40" as="geometry" />
        </mxCell>
        <mxCell id="5Kz1C0BnfGolWp81w5-C-25" value="" style="edgeStyle=orthogonalEdgeStyle;html=1;verticalAlign=bottom;endArrow=open;endSize=8;strokeColor=#ff0000;rounded=0;exitX=1;exitY=0.5;exitDx=0;exitDy=0;" edge="1" parent="1" source="5Kz1C0BnfGolWp81w5-C-24">
          <mxGeometry relative="1" as="geometry">
            <mxPoint x="880" y="270" as="targetPoint" />
          </mxGeometry>
        </mxCell>
        <mxCell id="5Kz1C0BnfGolWp81w5-C-27" value="" style="ellipse;html=1;shape=endState;fillColor=#000000;strokeColor=#ff0000;" vertex="1" parent="1">
          <mxGeometry x="880" y="255" width="30" height="30" as="geometry" />
        </mxCell>
        <mxCell id="5Kz1C0BnfGolWp81w5-C-28" value="Current user" style="rounded=1;whiteSpace=wrap;html=1;arcSize=40;fontColor=#000000;fillColor=#ffffc0;strokeColor=#ff0000;" vertex="1" parent="1">
          <mxGeometry x="835" y="162.5" width="120" height="40" as="geometry" />
        </mxCell>
        <mxCell id="5Kz1C0BnfGolWp81w5-C-29" value="" style="edgeStyle=orthogonalEdgeStyle;html=1;verticalAlign=bottom;endArrow=open;endSize=8;strokeColor=#ff0000;rounded=0;" edge="1" parent="1">
          <mxGeometry relative="1" as="geometry">
            <mxPoint x="1020" y="182" as="targetPoint" />
            <mxPoint x="990" y="182" as="sourcePoint" />
            <Array as="points">
              <mxPoint x="955" y="182" />
              <mxPoint x="955" y="182" />
            </Array>
          </mxGeometry>
        </mxCell>
        <mxCell id="5Kz1C0BnfGolWp81w5-C-30" value="" style="ellipse;html=1;shape=endState;fillColor=#000000;strokeColor=#ff0000;" vertex="1" parent="1">
          <mxGeometry x="1020" y="165" width="30" height="30" as="geometry" />
        </mxCell>
        <mxCell id="5Kz1C0BnfGolWp81w5-C-31" value="send details" style="text;html=1;align=center;verticalAlign=middle;resizable=0;points=[];autosize=1;strokeColor=none;fillColor=none;" vertex="1" parent="1">
          <mxGeometry x="255" y="148" width="90" height="30" as="geometry" />
        </mxCell>
        <mxCell id="5Kz1C0BnfGolWp81w5-C-33" value="Validate details" style="text;html=1;align=center;verticalAlign=middle;resizable=0;points=[];autosize=1;strokeColor=none;fillColor=none;" vertex="1" parent="1">
          <mxGeometry x="450" y="148" width="100" height="30" as="geometry" />
        </mxCell>
      </root>
    </mxGraphModel>
  </diagram>
</mxfile>
